# xmcd
#
# Track frame offsets:
#	150
#	24853
#	43740
#	60050
#	88082
#	106526
#	124266
#	145106
#	169808
#	186540
#	203673
#	224325
#	242048
#	270880
#	289100
#	312766
#
# Disc length: 4389 seconds
#
# Revision: 0
# Processed by: cddbd v1.5.2PL0 Copyright (c) Steve Scherf et al.
# Submitted via: EZCDAudioConverter 4.0.5.1
#
DISCID=d8112310
DTITLE=ERG Music - Nu Dance Traxx Volume 296 US
DYEAR=2019
DGENRE=Dance
TTITLE0=Sigala and Becky Hill - Wish You Well [Ext]
TTITLE1=Tiesto, Jonas Blue and Rita Ora - Ritual [Tiesto Club Mix]
TTITLE2=Armin Van Buuren and Garibay - Phone Down [BRKLYN Extended Remix]
TTITLE3=Fisher - You Little Beauty [Ext]
TTITLE4=Hardwell ft. Trevor Guthrie - Summer Air [Ext]
TTITLE5=Mahalo x DLMT ft. Lily Denning - So Cold [Ext Mix Clean]
TTITLE6=Jax Jones and Martin Solveig present Europa and Madison Beer - All Day A
TTITLE6=nd Night [Ext]
TTITLE7=Rod Carrillo and Terri B!\nRod Carrillo and Terri B! - You Got What I Need
TTITLE7=[Kebab and Cream Extended Remix]
TTITLE8=Betta Lemme - Play [Loris Cimino Extended Remix]
TTITLE9=Don Diablo ft. Jessie J - Brave [Don Diablo VIP Extended Mix]
TTITLE10=Gryffin with ZOHARA - Remember [Ext]
TTITLE11=Young Bombs - Starry Eyes [Tom Budin Extended Remix]
TTITLE12=Mike Catherall - I Feel The Night [Mike and Georgie's Progressive House
TTITLE12=Mix]
TTITLE13=Kygo and Rita Ora - Carry On [Nicky Romero Extended Remix]
TTITLE14=Digital Remedy - Lover, Lover [Jolyon Petch Extended Mix]
TTITLE15=Ava Max - So Am I [Deepend Extended Remix]
EXTD=
EXTT0=
EXTT1=
EXTT2=
EXTT3=
EXTT4=
EXTT5=
EXTT6=
EXTT7=
EXTT8=
EXTT9=
EXTT10=
EXTT11=
EXTT12=
EXTT13=
EXTT14=
EXTT15=
PLAYORDER=
